<svg width="402" height="88" viewBox="0 0 402 88" fill="none" xmlns="http://www.w3.org/2000/svg">
<path d="M30.24 65H17.184L8.64 17.768H22.176L26.496 48.968L42.048 17.768H55.584L30.24 65ZM90.9885 44.648H58.3485V46.856C58.3485 53.576 61.5165 56.36 66.9885 56.36C71.0205 56.36 74.9565 54.344 76.3965 51.08H89.2605C84.6525 60.776 75.9165 66.248 65.8365 66.248C52.5885 66.248 45.9645 59.528 45.9645 46.76C45.9645 28.52 56.9085 16.52 73.8045 16.52C85.7085 16.52 91.8525 22.856 91.8525 35.432C91.8525 38.216 91.5645 41.288 90.9885 44.648ZM59.7885 36.776H79.5645C79.7565 35.72 79.7565 34.76 79.7565 33.896C79.7565 27.848 75.9165 26.408 71.6925 26.408C65.3565 26.408 61.6125 30.92 59.7885 36.776ZM130.726 65H118.15L123.238 36.392C123.526 34.856 123.622 33.512 123.622 32.36C123.622 28.136 121.51 27.08 116.806 27.08C110.278 27.08 106.438 30.728 105.19 37.928L100.39 65H87.9097L96.2618 17.768H108.166L106.918 24.68C110.758 19.4 116.038 16.52 123.622 16.52C131.494 16.52 136.774 20.744 136.774 28.616C136.774 29.768 136.678 31.016 136.486 32.264L130.726 65ZM156.255 56.072C163.167 56.072 169.791 49.064 169.791 37.928C169.791 29.384 167.007 27.176 161.439 27.176C151.743 27.176 147.807 34.952 147.807 44.84C147.807 52.424 151.071 56.072 156.255 56.072ZM177.087 65H165.087L166.047 59.24C162.207 64.04 157.407 66.248 151.647 66.248C141.471 66.248 135.039 58.856 135.039 46.472C135.039 29.768 144.831 16.52 159.327 16.52C165.183 16.52 169.407 18.92 171.999 23.912L176.127 0.487995H188.415L177.087 65ZM226.281 44.648H193.641V46.856C193.641 53.576 196.809 56.36 202.281 56.36C206.313 56.36 210.249 54.344 211.689 51.08H224.553C219.945 60.776 211.209 66.248 201.129 66.248C187.881 66.248 181.257 59.528 181.257 46.76C181.257 28.52 192.201 16.52 209.097 16.52C221.001 16.52 227.145 22.856 227.145 35.432C227.145 38.216 226.857 41.288 226.281 44.648ZM195.081 36.776H214.857C215.049 35.72 215.049 34.76 215.049 33.896C215.049 27.848 211.209 26.408 206.985 26.408C200.649 26.408 196.905 30.92 195.081 36.776Z" fill="url(#paint0_linear_48_49)"/>
<path d="M247.106 55.592C256.898 55.592 260.834 47.816 260.834 37.928C260.834 29.192 257.57 26.696 252.29 26.696C245.474 26.696 238.85 33.704 238.85 44.84C238.85 53 241.634 55.592 247.106 55.592ZM231.554 87.368H219.266L231.554 17.768H243.554L242.594 23.528C246.434 18.728 251.234 16.52 256.994 16.52C267.074 16.52 273.602 23.912 273.602 36.296C273.602 53 263.714 66.248 249.314 66.248C243.458 66.248 239.234 63.848 236.546 58.856L231.554 87.368ZM301.388 47.048L302.348 41.864C300.908 43.112 298.604 43.784 293.804 44.648C284.876 46.28 283.052 48.68 283.052 53.096C283.052 56.072 285.356 57.32 288.62 57.32C294.668 57.32 300.332 52.616 301.388 47.048ZM310.796 65H299.18C299.084 64.424 298.988 63.752 298.988 62.984C298.988 62.312 299.084 61.544 299.18 60.776C295.628 64.04 290.252 66.248 283.916 66.248C274.508 66.248 270.188 61.928 270.188 55.496C270.188 41.48 280.076 38.408 295.148 36.392C303.692 35.24 304.076 33.608 304.076 31.016C304.076 26.984 301.388 26.12 296.876 26.12C291.212 26.12 288.428 28.904 287.18 33.128H275.564C277.484 23.336 284.012 16.52 299.18 16.52C311.756 16.52 316.556 21.224 316.556 29.768C316.556 31.496 316.364 33.224 316.076 35.144L310.796 65ZM358.636 32.072H346.636C346.636 27.176 344.812 25.832 339.34 25.832C333.676 25.832 330.796 27.08 330.796 30.344C330.796 32.648 333.196 33.896 337.612 35.144C351.052 38.984 357.004 39.368 357.004 49.544C357.004 58.952 348.268 66.248 333.1 66.248C320.716 66.248 313.324 60.872 313.324 52.328C313.324 51.56 313.42 50.696 313.516 49.832H326.38C326.284 50.312 326.284 50.792 326.284 51.272C326.284 55.112 329.644 56.84 334.636 56.84C339.724 56.84 344.14 55.208 344.14 51.464C344.14 48.872 341.836 47.624 337.516 46.568C322.444 43.112 318.412 39.08 318.412 30.92C318.412 24.008 324.748 16.52 341.356 16.52C353.644 16.52 358.828 21.32 358.828 29.48C358.828 30.344 358.732 31.208 358.636 32.072ZM400.077 32.072H388.077C388.077 27.176 386.253 25.832 380.781 25.832C375.117 25.832 372.237 27.08 372.237 30.344C372.237 32.648 374.637 33.896 379.053 35.144C392.493 38.984 398.445 39.368 398.445 49.544C398.445 58.952 389.709 66.248 374.541 66.248C362.157 66.248 354.765 60.872 354.765 52.328C354.765 51.56 354.861 50.696 354.957 49.832H367.821C367.725 50.312 367.725 50.792 367.725 51.272C367.725 55.112 371.085 56.84 376.077 56.84C381.165 56.84 385.581 55.208 385.581 51.464C385.581 48.872 383.277 47.624 378.957 46.568C363.885 43.112 359.853 39.08 359.853 30.92C359.853 24.008 366.189 16.52 382.797 16.52C395.085 16.52 400.269 21.32 400.269 29.48C400.269 30.344 400.173 31.208 400.077 32.072Z" fill="#2E2E2E"/>
<rect x="242" y="76" width="160" height="6" rx="3" fill="#2E2E2E"/>
<rect x="132" y="76" width="80" height="6" rx="3" fill="#2E2E2E"/>
<defs>
<linearGradient id="paint0_linear_48_49" x1="0" y1="30" x2="397" y2="30" gradientUnits="userSpaceOnUse">
<stop stop-color="#59AAF4"/>
<stop offset="1" stop-color="#48E4E4"/>
</linearGradient>
</defs>
</svg>
