<svg width="222" height="71" viewBox="0 0 222 71" fill="none" xmlns="http://www.w3.org/2000/svg">
<path d="M38.5739 40.2945L34.9278 49.9016H34.2476L30.6151 40.2945H31.2818L34.5877 49.1763L37.9209 40.2945H38.5739Z" fill="#2E2E2E"/>
<path d="M43.8481 50.0111C43.1588 50.0111 42.5375 49.856 41.9842 49.5458C41.431 49.2356 40.9956 48.7931 40.6782 48.2183C40.3698 47.6344 40.2156 46.9547 40.2156 46.1792C40.2156 45.4128 40.3743 44.7422 40.6918 44.1674C41.0092 43.5835 41.4446 43.141 41.9978 42.84C42.5601 42.5298 43.186 42.3746 43.8753 42.3746C44.5646 42.3746 45.1859 42.5298 45.7391 42.84C46.2924 43.141 46.7232 43.579 47.0316 44.1538C47.349 44.7285 47.5077 45.4037 47.5077 46.1792C47.5077 46.9547 47.349 47.6344 47.0316 48.2183C46.7141 48.7931 46.2742 49.2356 45.7119 49.5458C45.1586 49.856 44.5374 50.0111 43.8481 50.0111ZM43.8481 49.4637C44.3832 49.4637 44.882 49.3451 45.3446 49.1079C45.8162 48.8615 46.1926 48.492 46.4738 47.9994C46.7549 47.5067 46.8955 46.9 46.8955 46.1792C46.8955 45.4676 46.7549 44.8654 46.4738 44.3727C46.1926 43.88 45.8207 43.5151 45.3582 43.2779C44.8956 43.0315 44.3968 42.9084 43.8617 42.9084C43.3265 42.9084 42.8277 43.0315 42.3651 43.2779C41.9117 43.5151 41.5443 43.88 41.2632 44.3727C40.982 44.8654 40.8414 45.4676 40.8414 46.1792C40.8414 46.9 40.9775 47.5067 41.2496 47.9994C41.5307 48.492 41.8981 48.8615 42.3515 49.1079C42.8141 49.3451 43.3129 49.4637 43.8481 49.4637Z" fill="#2E2E2E"/>
<path d="M49.5284 46.1792C49.5284 45.4128 49.6781 44.7422 49.9774 44.1674C50.2858 43.5926 50.7075 43.1502 51.2426 42.84C51.7868 42.5298 52.4036 42.3746 53.0929 42.3746C53.8729 42.3746 54.535 42.5662 55.0792 42.9494C55.6234 43.3326 56.0043 43.8207 56.222 44.4138V42.4704H56.8342V49.9016H56.222V47.9446C56.0043 48.5468 55.6188 49.044 55.0656 49.4363C54.5214 49.8195 53.8638 50.0111 53.0929 50.0111C52.4036 50.0111 51.7868 49.856 51.2426 49.5458C50.7075 49.2265 50.2858 48.7794 49.9774 48.2046C49.6781 47.6207 49.5284 46.9456 49.5284 46.1792ZM56.222 46.1792C56.222 45.5314 56.0859 44.9612 55.8138 44.4685C55.5508 43.9667 55.188 43.5835 54.7254 43.3189C54.2629 43.0452 53.7459 42.9084 53.1745 42.9084C52.5759 42.9084 52.0499 43.0407 51.5964 43.3053C51.1429 43.5607 50.7892 43.9348 50.5352 44.4275C50.2812 44.9201 50.1543 45.504 50.1543 46.1792C50.1543 46.8543 50.2812 47.4383 50.5352 47.9309C50.7892 48.4236 51.1429 48.8022 51.5964 49.0668C52.0589 49.3314 52.585 49.4637 53.1745 49.4637C53.7459 49.4637 54.2629 49.3314 54.7254 49.0668C55.1971 48.7931 55.5644 48.4099 55.8274 47.9172C56.0905 47.4154 56.222 46.8361 56.222 46.1792Z" fill="#2E2E2E"/>
<path d="M60.2197 44.0032C60.4011 43.4558 60.7231 43.0407 61.1857 42.7578C61.6482 42.4659 62.2378 42.3199 62.9543 42.3199V42.9631H62.7502C62.0246 42.9631 61.4215 43.173 60.9408 43.5927C60.4601 44.0032 60.2197 44.6784 60.2197 45.6181V49.9016H59.6075V42.4704H60.2197V44.0032Z" fill="#2E2E2E"/>
<path d="M72.625 42.3199C73.5048 42.3199 74.2213 42.5936 74.7745 43.141C75.3278 43.6793 75.6044 44.4822 75.6044 45.5497V49.9016H75.0058V45.5907C75.0058 44.7057 74.7836 44.0306 74.3392 43.5653C73.8948 43.0909 73.2916 42.8536 72.5298 42.8536C71.7316 42.8536 71.0922 43.1091 70.6115 43.62C70.1399 44.1309 69.9041 44.8882 69.9041 45.8918V49.9016H69.2918V42.4704H69.9041V44.0443C70.1127 43.4877 70.4573 43.0635 70.938 42.7715C71.4278 42.4704 71.9901 42.3199 72.625 42.3199Z" fill="#2E2E2E"/>
<path d="M84.557 42.4704V49.9016H83.9448V48.2868C83.7362 48.8524 83.387 49.2858 82.8972 49.5869C82.4165 49.8788 81.8632 50.0248 81.2374 50.0248C80.3577 50.0248 79.6366 49.7557 79.0743 49.2174C78.521 48.6699 78.2444 47.8625 78.2444 46.795V42.4704H78.843V46.754C78.843 47.639 79.0652 48.3187 79.5096 48.7931C79.954 49.2584 80.5572 49.4911 81.319 49.4911C82.1172 49.4911 82.7521 49.2356 83.2237 48.7247C83.7044 48.2138 83.9448 47.4565 83.9448 46.4529V42.4704H84.557Z" fill="#2E2E2E"/>
<path d="M90.6661 42.3199C91.5459 42.3199 92.2624 42.5936 92.8157 43.141C93.3689 43.6793 93.6456 44.4822 93.6456 45.5497V49.9016H93.047V45.5907C93.047 44.7057 92.8247 44.0306 92.3803 43.5653C91.9359 43.0909 91.3327 42.8536 90.5709 42.8536C89.7727 42.8536 89.1333 43.1091 88.6526 43.62C88.181 44.1309 87.9452 44.8882 87.9452 45.8918V49.9016H87.333V42.4704H87.9452V44.0443C88.1538 43.4877 88.4984 43.0635 88.9791 42.7715C89.4689 42.4704 90.0312 42.3199 90.6661 42.3199Z" fill="#2E2E2E"/>
<path d="M95.9726 46.1792C95.9726 45.4037 96.1223 44.7285 96.4216 44.1538C96.7299 43.579 97.1517 43.141 97.6868 42.84C98.231 42.5298 98.8523 42.3746 99.5506 42.3746C100.476 42.3746 101.233 42.6073 101.823 43.0726C102.421 43.5379 102.793 44.1629 102.938 44.9475H102.299C102.181 44.3089 101.873 43.8071 101.374 43.4421C100.884 43.0772 100.276 42.8947 99.5506 42.8947C99.0064 42.8947 98.5121 43.0179 98.0677 43.2642C97.6233 43.5014 97.265 43.8709 96.993 44.3727C96.7299 44.8654 96.5984 45.4676 96.5984 46.1792C96.5984 46.9 96.7299 47.5067 96.993 47.9994C97.265 48.492 97.6233 48.8615 98.0677 49.1079C98.5121 49.3542 99.0064 49.4774 99.5506 49.4774C100.276 49.4774 100.884 49.2949 101.374 48.93C101.873 48.565 102.181 48.0632 102.299 47.4246H102.938C102.793 48.2001 102.421 48.825 101.823 49.2995C101.224 49.7739 100.467 50.0111 99.5506 50.0111C98.8523 50.0111 98.231 49.856 97.6868 49.5458C97.1517 49.2356 96.7299 48.7931 96.4216 48.2183C96.1223 47.6344 95.9726 46.9547 95.9726 46.1792Z" fill="#2E2E2E"/>
<path d="M104.967 46.1792C104.967 45.4128 105.116 44.7422 105.416 44.1674C105.724 43.5926 106.146 43.1502 106.681 42.84C107.225 42.5298 107.842 42.3746 108.531 42.3746C109.311 42.3746 109.973 42.5662 110.517 42.9494C111.062 43.3326 111.442 43.8207 111.66 44.4138V42.4704H112.272V49.9016H111.66V47.9446C111.442 48.5468 111.057 49.044 110.504 49.4363C109.96 49.8195 109.302 50.0111 108.531 50.0111C107.842 50.0111 107.225 49.856 106.681 49.5458C106.146 49.2265 105.724 48.7794 105.416 48.2046C105.116 47.6207 104.967 46.9456 104.967 46.1792ZM111.66 46.1792C111.66 45.5314 111.524 44.9612 111.252 44.4685C110.989 43.9667 110.626 43.5835 110.164 43.3189C109.701 43.0452 109.184 42.9084 108.613 42.9084C108.014 42.9084 107.488 43.0407 107.035 43.3053C106.581 43.5607 106.227 43.9348 105.973 44.4275C105.719 44.9201 105.592 45.504 105.592 46.1792C105.592 46.8543 105.719 47.4383 105.973 47.9309C106.227 48.4236 106.581 48.8022 107.035 49.0668C107.497 49.3314 108.023 49.4637 108.613 49.4637C109.184 49.4637 109.701 49.3314 110.164 49.0668C110.635 48.7931 111.003 48.4099 111.266 47.9172C111.529 47.4154 111.66 46.8361 111.66 46.1792Z" fill="#2E2E2E"/>
<path d="M137.349 43.0179H135.43V49.9016H134.818V43.0179H133.703V42.4704H134.818V41.9504C134.818 41.1749 135.013 40.6001 135.403 40.226C135.793 39.8428 136.433 39.6512 137.321 39.6512V40.1987C136.614 40.1987 136.12 40.3355 135.839 40.6092C135.566 40.8829 135.43 41.33 135.43 41.9504V42.4704H137.349V43.0179Z" fill="#2E2E2E"/>
<path d="M142.713 50.0111C142.023 50.0111 141.402 49.856 140.849 49.5458C140.295 49.2356 139.86 48.7931 139.543 48.2183C139.234 47.6344 139.08 46.9547 139.08 46.1792C139.08 45.4128 139.239 44.7422 139.556 44.1674C139.874 43.5835 140.309 43.141 140.862 42.84C141.425 42.5298 142.05 42.3746 142.74 42.3746C143.429 42.3746 144.05 42.5298 144.604 42.84C145.157 43.141 145.588 43.579 145.896 44.1538C146.213 44.7285 146.372 45.4037 146.372 46.1792C146.372 46.9547 146.213 47.6344 145.896 48.2183C145.579 48.7931 145.139 49.2356 144.576 49.5458C144.023 49.856 143.402 50.0111 142.713 50.0111ZM142.713 49.4637C143.248 49.4637 143.746 49.3451 144.209 49.1079C144.681 48.8615 145.057 48.492 145.338 47.9994C145.619 47.5067 145.76 46.9 145.76 46.1792C145.76 45.4676 145.619 44.8654 145.338 44.3727C145.057 43.88 144.685 43.5151 144.223 43.2779C143.76 43.0315 143.261 42.9084 142.726 42.9084C142.191 42.9084 141.692 43.0315 141.23 43.2779C140.776 43.5151 140.409 43.88 140.128 44.3727C139.846 44.8654 139.706 45.4676 139.706 46.1792C139.706 46.9 139.842 47.5067 140.114 47.9994C140.395 48.492 140.762 48.8615 141.216 49.1079C141.679 49.3451 142.177 49.4637 142.713 49.4637Z" fill="#2E2E2E"/>
<path d="M149.087 40.8145C148.942 40.8145 148.819 40.7689 148.719 40.6777C148.62 40.5773 148.57 40.445 148.57 40.2808C148.57 40.1257 148.62 39.9979 148.719 39.8976C148.819 39.7972 148.942 39.747 149.087 39.747C149.232 39.747 149.354 39.7972 149.454 39.8976C149.554 39.9979 149.604 40.1257 149.604 40.2808C149.604 40.445 149.554 40.5773 149.454 40.6777C149.354 40.7689 149.232 40.8145 149.087 40.8145ZM149.386 42.4704V49.9016H148.774V42.4704H149.386Z" fill="#2E2E2E"/>
<path d="M157.47 43.0042V47.9172C157.47 48.4647 157.57 48.8433 157.769 49.0531C157.969 49.2539 158.322 49.3542 158.83 49.3542H159.66V49.9016H158.735C158.091 49.9016 157.615 49.7511 157.307 49.45C157.007 49.1398 156.858 48.6289 156.858 47.9172V43.0042H155.742V42.4704H156.858V40.5819H157.47V42.4704H159.66V43.0042H157.47Z" fill="#2E2E2E"/>
<path d="M161.438 46.1792C161.438 45.4128 161.588 44.7422 161.887 44.1674C162.195 43.5926 162.617 43.1502 163.152 42.84C163.696 42.5298 164.313 42.3746 165.002 42.3746C165.782 42.3746 166.445 42.5662 166.989 42.9494C167.533 43.3326 167.914 43.8207 168.132 44.4138V42.4704H168.744V49.9016H168.132V47.9446C167.914 48.5468 167.528 49.044 166.975 49.4363C166.431 49.8195 165.773 50.0111 165.002 50.0111C164.313 50.0111 163.696 49.856 163.152 49.5458C162.617 49.2265 162.195 48.7794 161.887 48.2046C161.588 47.6207 161.438 46.9456 161.438 46.1792ZM168.132 46.1792C168.132 45.5314 167.995 44.9612 167.723 44.4685C167.46 43.9667 167.098 43.5835 166.635 43.3189C166.172 43.0452 165.655 42.9084 165.084 42.9084C164.485 42.9084 163.959 43.0407 163.506 43.3053C163.052 43.5607 162.699 43.9348 162.445 44.4275C162.191 44.9201 162.064 45.504 162.064 46.1792C162.064 46.8543 162.191 47.4383 162.445 47.9309C162.699 48.4236 163.052 48.8022 163.506 49.0668C163.968 49.3314 164.495 49.4637 165.084 49.4637C165.655 49.4637 166.172 49.3314 166.635 49.0668C167.107 48.7931 167.474 48.4099 167.737 47.9172C168 47.4154 168.132 46.8361 168.132 46.1792ZM163.764 41.6219C163.81 41.2752 163.919 41.0061 164.091 40.8145C164.272 40.6229 164.499 40.5271 164.771 40.5271C164.925 40.5271 165.061 40.559 165.179 40.6229C165.297 40.6777 165.429 40.7643 165.574 40.8829C165.71 40.9924 165.823 41.0745 165.914 41.1293C166.014 41.1749 166.132 41.1977 166.268 41.1977C166.422 41.1977 166.553 41.143 166.662 41.0335C166.771 40.924 166.839 40.7689 166.866 40.5682H167.274C167.247 40.8966 167.138 41.1612 166.948 41.3619C166.757 41.5535 166.526 41.6493 166.254 41.6493C166.082 41.6493 165.932 41.6174 165.805 41.5535C165.687 41.4897 165.551 41.3984 165.397 41.2798C165.27 41.1795 165.161 41.1065 165.07 41.0608C164.98 41.0061 164.875 40.9787 164.758 40.9787C164.422 40.9787 164.227 41.1931 164.173 41.6219H163.764Z" fill="#2E2E2E"/>
<path d="M174.769 50.0111C174.079 50.0111 173.458 49.856 172.905 49.5458C172.352 49.2356 171.916 48.7931 171.599 48.2183C171.29 47.6344 171.136 46.9547 171.136 46.1792C171.136 45.4128 171.295 44.7422 171.612 44.1674C171.93 43.5835 172.365 43.141 172.918 42.84C173.481 42.5298 174.107 42.3746 174.796 42.3746C175.485 42.3746 176.106 42.5298 176.66 42.84C177.213 43.141 177.644 43.579 177.952 44.1538C178.27 44.7285 178.428 45.4037 178.428 46.1792C178.428 46.9547 178.27 47.6344 177.952 48.2183C177.635 48.7931 177.195 49.2356 176.632 49.5458C176.079 49.856 175.458 50.0111 174.769 50.0111ZM174.769 49.4637C175.304 49.4637 175.803 49.3451 176.265 49.1079C176.737 48.8615 177.113 48.492 177.394 47.9994C177.675 47.5067 177.816 46.9 177.816 46.1792C177.816 45.4676 177.675 44.8654 177.394 44.3727C177.113 43.88 176.741 43.5151 176.279 43.2779C175.816 43.0315 175.317 42.9084 174.782 42.9084C174.247 42.9084 173.748 43.0315 173.286 43.2779C172.832 43.5151 172.465 43.88 172.184 44.3727C171.903 44.8654 171.762 45.4676 171.762 46.1792C171.762 46.9 171.898 47.5067 172.17 47.9994C172.451 48.492 172.819 48.8615 173.272 49.1079C173.735 49.3451 174.233 49.4637 174.769 49.4637Z" fill="#2E2E2E"/>
<path d="M188.03 43.0179H186.112V49.9016H185.499V43.0179H184.384V42.4704H185.499V41.9504C185.499 41.1749 185.694 40.6001 186.084 40.226C186.474 39.8428 187.114 39.6512 188.003 39.6512V40.1987C187.295 40.1987 186.801 40.3355 186.52 40.6092C186.248 40.8829 186.112 41.33 186.112 41.9504V42.4704H188.03V43.0179Z" fill="#2E2E2E"/>
<path d="M189.761 46.1792C189.761 45.4128 189.911 44.7422 190.21 44.1674C190.519 43.5926 190.94 43.1502 191.476 42.84C192.02 42.5298 192.636 42.3746 193.326 42.3746C194.106 42.3746 194.768 42.5662 195.312 42.9494C195.856 43.3326 196.237 43.8207 196.455 44.4138V42.4704H197.067V49.9016H196.455V47.9446C196.237 48.5468 195.852 49.044 195.298 49.4363C194.754 49.8195 194.097 50.0111 193.326 50.0111C192.636 50.0111 192.02 49.856 191.476 49.5458C190.94 49.2265 190.519 48.7794 190.21 48.2046C189.911 47.6207 189.761 46.9456 189.761 46.1792ZM196.455 46.1792C196.455 45.5314 196.319 44.9612 196.047 44.4685C195.784 43.9667 195.421 43.5835 194.958 43.3189C194.496 43.0452 193.979 42.9084 193.407 42.9084C192.809 42.9084 192.283 43.0407 191.829 43.3053C191.376 43.5607 191.022 43.9348 190.768 44.4275C190.514 44.9201 190.387 45.504 190.387 46.1792C190.387 46.8543 190.514 47.4383 190.768 47.9309C191.022 48.4236 191.376 48.8022 191.829 49.0668C192.292 49.3314 192.818 49.4637 193.407 49.4637C193.979 49.4637 194.496 49.3314 194.958 49.0668C195.43 48.7931 195.797 48.4099 196.06 47.9172C196.323 47.4154 196.455 46.8361 196.455 46.1792ZM194.809 40.1713L192.142 41.8683V41.3619L194.809 39.5691V40.1713Z" fill="#2E2E2E"/>
<path d="M199.459 46.1792C199.459 45.4037 199.609 44.7285 199.908 44.1538C200.217 43.579 200.639 43.141 201.174 42.84C201.718 42.5298 202.339 42.3746 203.037 42.3746C203.963 42.3746 204.72 42.6073 205.309 43.0726C205.908 43.5379 206.28 44.1629 206.425 44.9475H205.786C205.668 44.3089 205.359 43.8071 204.861 43.4421C204.371 43.0772 203.763 42.8947 203.037 42.8947C202.493 42.8947 201.999 43.0179 201.555 43.2642C201.11 43.5014 200.752 43.8709 200.48 44.3727C200.217 44.8654 200.085 45.4676 200.085 46.1792C200.085 46.9 200.217 47.5067 200.48 47.9994C200.752 48.492 201.11 48.8615 201.555 49.1079C201.999 49.3542 202.493 49.4774 203.037 49.4774C203.763 49.4774 204.371 49.2949 204.861 48.93C205.359 48.565 205.668 48.0632 205.786 47.4246H206.425C206.28 48.2001 205.908 48.825 205.309 49.2995C204.711 49.7739 203.954 50.0111 203.037 50.0111C202.339 50.0111 201.718 49.856 201.174 49.5458C200.639 49.2356 200.217 48.7931 199.908 48.2183C199.609 47.6344 199.459 46.9547 199.459 46.1792Z" fill="#2E2E2E"/>
<path d="M209.147 40.8145C209.002 40.8145 208.88 40.7689 208.78 40.6777C208.68 40.5773 208.63 40.445 208.63 40.2808C208.63 40.1257 208.68 39.9979 208.78 39.8976C208.88 39.7972 209.002 39.747 209.147 39.747C209.292 39.747 209.415 39.7972 209.515 39.8976C209.614 39.9979 209.664 40.1257 209.664 40.2808C209.664 40.445 209.614 40.5773 209.515 40.6777C209.415 40.7689 209.292 40.8145 209.147 40.8145ZM209.447 42.4704V49.9016H208.834V42.4704H209.447Z" fill="#2E2E2E"/>
<path d="M212.847 39.7744V49.9016H212.235V39.7744H212.847Z" fill="#2E2E2E"/>
<path d="M215.54 49.9427C215.386 49.9427 215.259 49.8925 215.16 49.7921C215.06 49.6918 215.01 49.5641 215.01 49.409C215.01 49.2539 215.06 49.1261 215.16 49.0258C215.259 48.9254 215.386 48.8752 215.54 48.8752C215.686 48.8752 215.808 48.9254 215.908 49.0258C216.008 49.1261 216.057 49.2539 216.057 49.409C216.057 49.5641 216.008 49.6918 215.908 49.7921C215.808 49.8925 215.686 49.9427 215.54 49.9427Z" fill="#2E2E2E"/>
<path d="M12.2442 36.7864H4.84328L0 9.85351H7.67306L10.1219 27.6446L18.9378 9.85351H26.6108L12.2442 36.7864Z" fill="url(#paint0_linear_19_369)"/>
<path d="M46.6803 25.1812H28.1779V26.4402C28.1779 30.2722 29.9737 31.8597 33.0756 31.8597C35.3612 31.8597 37.5924 30.7101 38.4087 28.8489H45.7008C43.0887 34.3778 38.1366 37.4981 32.4226 37.4981C24.9128 37.4981 21.1579 33.6662 21.1579 26.3855C21.1579 15.9846 27.3616 9.14187 36.9393 9.14187C43.6873 9.14187 47.1701 12.7548 47.1701 19.926C47.1701 21.5135 47.0068 23.2652 46.6803 25.1812ZM28.9942 20.6924H40.2045C40.3133 20.0902 40.3133 19.5428 40.3133 19.0501C40.3133 15.6014 38.1366 14.7803 35.7421 14.7803C32.1505 14.7803 30.0281 17.3531 28.9942 20.6924Z" fill="url(#paint1_linear_19_369)"/>
<path d="M69.2059 36.7864H62.077L64.9612 20.4734C65.1245 19.5975 65.1789 18.8312 65.1789 18.1742C65.1789 15.7656 63.9817 15.1635 61.3152 15.1635C57.6147 15.1635 55.4379 17.2436 54.7305 21.3493L52.0095 36.7864H44.9351L49.6695 9.85351H56.4175L55.71 13.7949C57.8868 10.7841 60.8798 9.14187 65.1789 9.14187C69.6412 9.14187 72.6343 11.5505 72.6343 16.0393C72.6343 16.6962 72.5799 17.4079 72.471 18.1195L69.2059 36.7864Z" fill="url(#paint2_linear_19_369)"/>
<path d="M83.6775 31.6955C87.5956 31.6955 91.3505 27.6993 91.3505 21.3493C91.3505 16.4773 89.7724 15.2182 86.6161 15.2182C81.1198 15.2182 78.8886 19.6523 78.8886 25.2907C78.8886 29.6153 80.7389 31.6955 83.6775 31.6955ZM95.4864 36.7864H88.684L89.2282 33.5019C87.0515 36.239 84.3305 37.4981 81.0654 37.4981C75.297 37.4981 71.6509 33.283 71.6509 26.2213C71.6509 16.6962 77.2016 9.14187 85.4189 9.14187C88.7384 9.14187 91.1329 10.5104 92.6022 13.357L94.9422 0H101.908L95.4864 36.7864Z" fill="url(#paint3_linear_19_369)"/>
<path d="M123.373 25.1812H104.87V26.4402C104.87 30.2722 106.666 31.8597 109.768 31.8597C112.054 31.8597 114.285 30.7101 115.101 28.8489H122.393C119.781 34.3778 114.829 37.4981 109.115 37.4981C101.605 37.4981 97.8502 33.6662 97.8502 26.3855C97.8502 15.9846 104.054 9.14187 113.632 9.14187C120.38 9.14187 123.862 12.7548 123.862 19.926C123.862 21.5135 123.699 23.2652 123.373 25.1812ZM105.687 20.6924H116.897C117.006 20.0902 117.006 19.5428 117.006 19.0501C117.006 15.6014 114.829 14.7803 112.434 14.7803C108.843 14.7803 106.72 17.3531 105.687 20.6924Z" fill="url(#paint4_linear_19_369)"/>
<path d="M135.178 31.4217C140.728 31.4217 142.96 26.9877 142.96 21.3493C142.96 16.3678 141.109 14.9445 138.116 14.9445C134.253 14.9445 130.498 18.9406 130.498 25.2907C130.498 29.9437 132.076 31.4217 135.178 31.4217ZM126.362 49.5412H119.396L126.362 9.85351H133.164L132.62 13.138C134.797 10.4009 137.518 9.14187 140.783 9.14187C146.497 9.14187 150.197 13.357 150.197 20.4187C150.197 29.9437 144.592 37.4981 136.429 37.4981C133.11 37.4981 130.715 36.1295 129.192 33.283L126.362 49.5412Z" fill="#2E2E2E"/>
<path d="M165.948 26.5497L166.492 23.5937C165.676 24.3053 164.37 24.6885 161.649 25.1812C156.588 26.1118 155.554 27.4803 155.554 29.9985C155.554 31.6955 156.86 32.4071 158.71 32.4071C162.139 32.4071 165.35 29.7248 165.948 26.5497ZM171.281 36.7864H164.697C164.642 36.458 164.588 36.0748 164.588 35.6369C164.588 35.2537 164.642 34.8157 164.697 34.3778C162.683 36.239 159.636 37.4981 156.044 37.4981C150.711 37.4981 148.262 35.0347 148.262 31.367C148.262 23.3747 153.867 21.623 162.411 20.4734C167.254 19.8165 167.472 18.8859 167.472 17.4079C167.472 15.1087 165.948 14.616 163.39 14.616C160.18 14.616 158.602 16.2035 157.894 18.6122H151.309C152.398 13.0285 156.098 9.14187 164.697 9.14187C171.825 9.14187 174.546 11.8242 174.546 16.6962C174.546 17.6816 174.437 18.6669 174.274 19.7618L171.281 36.7864Z" fill="#2E2E2E"/>
<path d="M198.4 18.01H191.597C191.597 15.2182 190.563 14.4518 187.461 14.4518C184.251 14.4518 182.618 15.1635 182.618 17.0247C182.618 18.3385 183.979 19.0501 186.482 19.7618C194.101 21.9514 197.475 22.1704 197.475 27.973C197.475 33.3377 192.522 37.4981 183.924 37.4981C176.904 37.4981 172.714 34.4325 172.714 29.5605C172.714 29.1226 172.768 28.6299 172.823 28.1372H180.115C180.06 28.4109 180.06 28.6847 180.06 28.9584C180.06 31.148 181.965 32.1334 184.795 32.1334C187.679 32.1334 190.182 31.2028 190.182 29.0679C190.182 27.5898 188.876 26.8782 186.427 26.276C177.884 24.3053 175.598 22.0062 175.598 17.3531C175.598 13.4117 179.19 9.14187 188.604 9.14187C195.57 9.14187 198.508 11.879 198.508 16.532C198.508 17.0247 198.454 17.5173 198.4 18.01Z" fill="#2E2E2E"/>
<path d="M221.891 18.01H215.089C215.089 15.2182 214.055 14.4518 210.953 14.4518C207.742 14.4518 206.11 15.1635 206.11 17.0247C206.11 18.3385 207.47 19.0501 209.973 19.7618C217.592 21.9514 220.966 22.1704 220.966 27.973C220.966 33.3377 216.014 37.4981 207.416 37.4981C200.396 37.4981 196.205 34.4325 196.205 29.5605C196.205 29.1226 196.26 28.6299 196.314 28.1372H203.606C203.552 28.4109 203.552 28.6847 203.552 28.9584C203.552 31.148 205.457 32.1334 208.286 32.1334C211.171 32.1334 213.674 31.2028 213.674 29.0679C213.674 27.5898 212.368 26.8782 209.919 26.276C201.375 24.3053 199.09 22.0062 199.09 17.3531C199.09 13.4117 202.681 9.14187 212.096 9.14187C219.061 9.14187 222 11.879 222 16.532C222 17.0247 221.946 17.5173 221.891 18.01Z" fill="#2E2E2E"/>
<path d="M61.4253 69.2893C61.4253 68.3445 62.1867 67.5786 63.1259 67.5786H218.446C219.386 67.5786 220.147 68.3445 220.147 69.2893C220.147 70.2341 219.386 71 218.446 71H63.1259C62.1867 71 61.4253 70.2341 61.4253 69.2893Z" fill="#2E2E2E"/>
<defs>
<linearGradient id="paint0_linear_19_369" x1="0" y1="35.5" x2="222" y2="35.5" gradientUnits="userSpaceOnUse">
<stop stop-color="#59AAF4"/>
<stop offset="1" stop-color="#48E4E4"/>
</linearGradient>
<linearGradient id="paint1_linear_19_369" x1="0" y1="35.5" x2="222" y2="35.5" gradientUnits="userSpaceOnUse">
<stop stop-color="#59AAF4"/>
<stop offset="1" stop-color="#48E4E4"/>
</linearGradient>
<linearGradient id="paint2_linear_19_369" x1="0" y1="35.5" x2="222" y2="35.5" gradientUnits="userSpaceOnUse">
<stop stop-color="#59AAF4"/>
<stop offset="1" stop-color="#48E4E4"/>
</linearGradient>
<linearGradient id="paint3_linear_19_369" x1="0" y1="35.5" x2="222" y2="35.5" gradientUnits="userSpaceOnUse">
<stop stop-color="#59AAF4"/>
<stop offset="1" stop-color="#48E4E4"/>
</linearGradient>
<linearGradient id="paint4_linear_19_369" x1="0" y1="35.5" x2="222" y2="35.5" gradientUnits="userSpaceOnUse">
<stop stop-color="#59AAF4"/>
<stop offset="1" stop-color="#48E4E4"/>
</linearGradient>
</defs>
</svg>
