<svg width="401" height="125" viewBox="0 0 401 125" fill="none" xmlns="http://www.w3.org/2000/svg">
<path d="M76.688 71.152L70.256 88H69.056L62.648 71.152H63.824L69.656 86.728L75.536 71.152H76.688ZM85.9921 88.192C84.7761 88.192 83.6801 87.92 82.7041 87.376C81.7281 86.832 80.9601 86.056 80.4001 85.048C79.8561 84.024 79.5841 82.832 79.5841 81.472C79.5841 80.128 79.8641 78.952 80.4241 77.944C80.9841 76.92 81.7521 76.144 82.7281 75.616C83.7201 75.072 84.8241 74.8 86.0401 74.8C87.2561 74.8 88.3521 75.072 89.3281 75.616C90.3041 76.144 91.0641 76.912 91.6081 77.92C92.1681 78.928 92.4481 80.112 92.4481 81.472C92.4481 82.832 92.1681 84.024 91.6081 85.048C91.0481 86.056 90.2721 86.832 89.2801 87.376C88.3041 87.92 87.2081 88.192 85.9921 88.192ZM85.9921 87.232C86.9361 87.232 87.8161 87.024 88.6321 86.608C89.4641 86.176 90.1281 85.528 90.6241 84.664C91.1201 83.8 91.3681 82.736 91.3681 81.472C91.3681 80.224 91.1201 79.168 90.6241 78.304C90.1281 77.44 89.4721 76.8 88.6561 76.384C87.8401 75.952 86.9601 75.736 86.0161 75.736C85.0721 75.736 84.1921 75.952 83.3761 76.384C82.5761 76.8 81.9281 77.44 81.4321 78.304C80.9361 79.168 80.6881 80.224 80.6881 81.472C80.6881 82.736 80.9281 83.8 81.4081 84.664C81.9041 85.528 82.5521 86.176 83.3521 86.608C84.1681 87.024 85.0481 87.232 85.9921 87.232ZM96.0129 81.472C96.0129 80.128 96.2769 78.952 96.8049 77.944C97.3489 76.936 98.0929 76.16 99.0369 75.616C99.9969 75.072 101.085 74.8 102.301 74.8C103.677 74.8 104.845 75.136 105.805 75.808C106.765 76.48 107.437 77.336 107.821 78.376V74.968H108.901V88H107.821V84.568C107.437 85.624 106.757 86.496 105.781 87.184C104.821 87.856 103.661 88.192 102.301 88.192C101.085 88.192 99.9969 87.92 99.0369 87.376C98.0929 86.816 97.3489 86.032 96.8049 85.024C96.2769 84 96.0129 82.816 96.0129 81.472ZM107.821 81.472C107.821 80.336 107.581 79.336 107.101 78.472C106.637 77.592 105.997 76.92 105.181 76.456C104.365 75.976 103.453 75.736 102.445 75.736C101.389 75.736 100.461 75.968 99.6609 76.432C98.8609 76.88 98.2369 77.536 97.7889 78.4C97.3409 79.264 97.1169 80.288 97.1169 81.472C97.1169 82.656 97.3409 83.68 97.7889 84.544C98.2369 85.408 98.8609 86.072 99.6609 86.536C100.477 87 101.405 87.232 102.445 87.232C103.453 87.232 104.365 87 105.181 86.536C106.013 86.056 106.661 85.384 107.125 84.52C107.589 83.64 107.821 82.624 107.821 81.472ZM114.873 77.656C115.193 76.696 115.761 75.968 116.577 75.472C117.393 74.96 118.433 74.704 119.697 74.704V75.832H119.337C118.057 75.832 116.993 76.2 116.145 76.936C115.297 77.656 114.873 78.84 114.873 80.488V88H113.793V74.968H114.873V77.656ZM136.757 74.704C138.309 74.704 139.573 75.184 140.549 76.144C141.525 77.088 142.013 78.496 142.013 80.368V88H140.957V80.44C140.957 78.888 140.565 77.704 139.781 76.888C138.997 76.056 137.933 75.64 136.589 75.64C135.181 75.64 134.053 76.088 133.205 76.984C132.373 77.88 131.957 79.208 131.957 80.968V88H130.877V74.968H131.957V77.728C132.325 76.752 132.933 76.008 133.781 75.496C134.645 74.968 135.637 74.704 136.757 74.704ZM157.807 74.968V88H156.727V85.168C156.359 86.16 155.743 86.92 154.879 87.448C154.031 87.96 153.055 88.216 151.951 88.216C150.399 88.216 149.127 87.744 148.135 86.8C147.159 85.84 146.671 84.424 146.671 82.552V74.968H147.727V82.48C147.727 84.032 148.119 85.224 148.903 86.056C149.687 86.872 150.751 87.28 152.095 87.28C153.503 87.28 154.623 86.832 155.455 85.936C156.303 85.04 156.727 83.712 156.727 81.952V74.968H157.807ZM168.584 74.704C170.136 74.704 171.4 75.184 172.376 76.144C173.352 77.088 173.84 78.496 173.84 80.368V88H172.784V80.44C172.784 78.888 172.392 77.704 171.608 76.888C170.824 76.056 169.76 75.64 168.416 75.64C167.008 75.64 165.88 76.088 165.032 76.984C164.2 77.88 163.784 79.208 163.784 80.968V88H162.704V74.968H163.784V77.728C164.152 76.752 164.76 76.008 165.608 75.496C166.472 74.968 167.464 74.704 168.584 74.704ZM177.945 81.472C177.945 80.112 178.209 78.928 178.737 77.92C179.281 76.912 180.025 76.144 180.969 75.616C181.929 75.072 183.025 74.8 184.257 74.8C185.889 74.8 187.225 75.208 188.265 76.024C189.321 76.84 189.977 77.936 190.233 79.312H189.105C188.897 78.192 188.353 77.312 187.473 76.672C186.609 76.032 185.537 75.712 184.257 75.712C183.297 75.712 182.425 75.928 181.641 76.36C180.857 76.776 180.225 77.424 179.745 78.304C179.281 79.168 179.049 80.224 179.049 81.472C179.049 82.736 179.281 83.8 179.745 84.664C180.225 85.528 180.857 86.176 181.641 86.608C182.425 87.04 183.297 87.256 184.257 87.256C185.537 87.256 186.609 86.936 187.473 86.296C188.353 85.656 188.897 84.776 189.105 83.656H190.233C189.977 85.016 189.321 86.112 188.265 86.944C187.209 87.776 185.873 88.192 184.257 88.192C183.025 88.192 181.929 87.92 180.969 87.376C180.025 86.832 179.281 86.056 178.737 85.048C178.209 84.024 177.945 82.832 177.945 81.472ZM193.811 81.472C193.811 80.128 194.075 78.952 194.603 77.944C195.147 76.936 195.891 76.16 196.835 75.616C197.795 75.072 198.883 74.8 200.099 74.8C201.475 74.8 202.643 75.136 203.603 75.808C204.563 76.48 205.235 77.336 205.619 78.376V74.968H206.699V88H205.619V84.568C205.235 85.624 204.555 86.496 203.579 87.184C202.619 87.856 201.459 88.192 200.099 88.192C198.883 88.192 197.795 87.92 196.835 87.376C195.891 86.816 195.147 86.032 194.603 85.024C194.075 84 193.811 82.816 193.811 81.472ZM205.619 81.472C205.619 80.336 205.379 79.336 204.899 78.472C204.435 77.592 203.795 76.92 202.979 76.456C202.163 75.976 201.251 75.736 200.243 75.736C199.187 75.736 198.259 75.968 197.459 76.432C196.659 76.88 196.035 77.536 195.587 78.4C195.139 79.264 194.915 80.288 194.915 81.472C194.915 82.656 195.139 83.68 195.587 84.544C196.035 85.408 196.659 86.072 197.459 86.536C198.275 87 199.203 87.232 200.243 87.232C201.251 87.232 202.163 87 202.979 86.536C203.811 86.056 204.459 85.384 204.923 84.52C205.387 83.64 205.619 82.624 205.619 81.472Z" fill="#2E2E2E"/>
<path d="M250.936 75.928H247.552V88H246.472V75.928H244.504V74.968H246.472V74.056C246.472 72.696 246.816 71.688 247.504 71.032C248.192 70.36 249.32 70.024 250.888 70.024V70.984C249.64 70.984 248.768 71.224 248.272 71.704C247.792 72.184 247.552 72.968 247.552 74.056V74.968H250.936V75.928ZM260.398 88.192C259.182 88.192 258.086 87.92 257.11 87.376C256.134 86.832 255.366 86.056 254.806 85.048C254.262 84.024 253.99 82.832 253.99 81.472C253.99 80.128 254.27 78.952 254.83 77.944C255.39 76.92 256.158 76.144 257.134 75.616C258.126 75.072 259.23 74.8 260.446 74.8C261.662 74.8 262.758 75.072 263.734 75.616C264.71 76.144 265.47 76.912 266.014 77.92C266.574 78.928 266.854 80.112 266.854 81.472C266.854 82.832 266.574 84.024 266.014 85.048C265.454 86.056 264.678 86.832 263.686 87.376C262.71 87.92 261.614 88.192 260.398 88.192ZM260.398 87.232C261.342 87.232 262.222 87.024 263.038 86.608C263.87 86.176 264.534 85.528 265.03 84.664C265.526 83.8 265.774 82.736 265.774 81.472C265.774 80.224 265.526 79.168 265.03 78.304C264.534 77.44 263.878 76.8 263.062 76.384C262.246 75.952 261.366 75.736 260.422 75.736C259.478 75.736 258.598 75.952 257.782 76.384C256.982 76.8 256.334 77.44 255.838 78.304C255.342 79.168 255.094 80.224 255.094 81.472C255.094 82.736 255.334 83.8 255.814 84.664C256.31 85.528 256.958 86.176 257.758 86.608C258.574 87.024 259.454 87.232 260.398 87.232ZM271.643 72.064C271.387 72.064 271.171 71.984 270.995 71.824C270.819 71.648 270.731 71.416 270.731 71.128C270.731 70.856 270.819 70.632 270.995 70.456C271.171 70.28 271.387 70.192 271.643 70.192C271.899 70.192 272.115 70.28 272.291 70.456C272.467 70.632 272.555 70.856 272.555 71.128C272.555 71.416 272.467 71.648 272.291 71.824C272.115 71.984 271.899 72.064 271.643 72.064ZM272.171 74.968V88H271.091V74.968H272.171ZM286.432 75.904V84.52C286.432 85.48 286.608 86.144 286.96 86.512C287.312 86.864 287.936 87.04 288.832 87.04H290.296V88H288.664C287.528 88 286.688 87.736 286.144 87.208C285.616 86.664 285.352 85.768 285.352 84.52V75.904H283.384V74.968H285.352V71.656H286.432V74.968H290.296V75.904H286.432ZM293.432 81.472C293.432 80.128 293.696 78.952 294.224 77.944C294.768 76.936 295.512 76.16 296.456 75.616C297.416 75.072 298.504 74.8 299.72 74.8C301.096 74.8 302.264 75.136 303.224 75.808C304.184 76.48 304.856 77.336 305.24 78.376V74.968H306.32V88H305.24V84.568C304.856 85.624 304.176 86.496 303.2 87.184C302.24 87.856 301.08 88.192 299.72 88.192C298.504 88.192 297.416 87.92 296.456 87.376C295.512 86.816 294.768 86.032 294.224 85.024C293.696 84 293.432 82.816 293.432 81.472ZM305.24 81.472C305.24 80.336 305 79.336 304.52 78.472C304.056 77.592 303.416 76.92 302.6 76.456C301.784 75.976 300.872 75.736 299.864 75.736C298.808 75.736 297.88 75.968 297.08 76.432C296.28 76.88 295.656 77.536 295.208 78.4C294.76 79.264 294.536 80.288 294.536 81.472C294.536 82.656 294.76 83.68 295.208 84.544C295.656 85.408 296.28 86.072 297.08 86.536C297.896 87 298.824 87.232 299.864 87.232C300.872 87.232 301.784 87 302.6 86.536C303.432 86.056 304.08 85.384 304.544 84.52C305.008 83.64 305.24 82.624 305.24 81.472ZM297.536 73.48C297.616 72.872 297.808 72.4 298.112 72.064C298.432 71.728 298.832 71.56 299.312 71.56C299.584 71.56 299.824 71.616 300.032 71.728C300.24 71.824 300.472 71.976 300.728 72.184C300.968 72.376 301.168 72.52 301.328 72.616C301.504 72.696 301.712 72.736 301.952 72.736C302.224 72.736 302.456 72.64 302.648 72.448C302.84 72.256 302.96 71.984 303.008 71.632H303.728C303.68 72.208 303.488 72.672 303.152 73.024C302.816 73.36 302.408 73.528 301.928 73.528C301.624 73.528 301.36 73.472 301.136 73.36C300.928 73.248 300.688 73.088 300.416 72.88C300.192 72.704 300 72.576 299.84 72.496C299.68 72.4 299.496 72.352 299.288 72.352C298.696 72.352 298.352 72.728 298.256 73.48H297.536ZM316.948 88.192C315.732 88.192 314.636 87.92 313.66 87.376C312.684 86.832 311.916 86.056 311.356 85.048C310.812 84.024 310.54 82.832 310.54 81.472C310.54 80.128 310.82 78.952 311.38 77.944C311.94 76.92 312.708 76.144 313.684 75.616C314.676 75.072 315.78 74.8 316.996 74.8C318.212 74.8 319.308 75.072 320.284 75.616C321.26 76.144 322.02 76.912 322.564 77.92C323.124 78.928 323.404 80.112 323.404 81.472C323.404 82.832 323.124 84.024 322.564 85.048C322.004 86.056 321.228 86.832 320.236 87.376C319.26 87.92 318.164 88.192 316.948 88.192ZM316.948 87.232C317.892 87.232 318.772 87.024 319.588 86.608C320.42 86.176 321.084 85.528 321.58 84.664C322.076 83.8 322.324 82.736 322.324 81.472C322.324 80.224 322.076 79.168 321.58 78.304C321.084 77.44 320.428 76.8 319.612 76.384C318.796 75.952 317.916 75.736 316.972 75.736C316.028 75.736 315.148 75.952 314.332 76.384C313.532 76.8 312.884 77.44 312.388 78.304C311.892 79.168 311.644 80.224 311.644 81.472C311.644 82.736 311.884 83.8 312.364 84.664C312.86 85.528 313.508 86.176 314.308 86.608C315.124 87.024 316.004 87.232 316.948 87.232ZM340.343 75.928H336.959V88H335.879V75.928H333.911V74.968H335.879V74.056C335.879 72.696 336.223 71.688 336.911 71.032C337.599 70.36 338.727 70.024 340.295 70.024V70.984C339.047 70.984 338.175 71.224 337.679 71.704C337.199 72.184 336.959 72.968 336.959 74.056V74.968H340.343V75.928ZM343.397 81.472C343.397 80.128 343.661 78.952 344.189 77.944C344.733 76.936 345.477 76.16 346.421 75.616C347.381 75.072 348.469 74.8 349.685 74.8C351.061 74.8 352.229 75.136 353.189 75.808C354.149 76.48 354.821 77.336 355.205 78.376V74.968H356.285V88H355.205V84.568C354.821 85.624 354.141 86.496 353.165 87.184C352.205 87.856 351.045 88.192 349.685 88.192C348.469 88.192 347.381 87.92 346.421 87.376C345.477 86.816 344.733 86.032 344.189 85.024C343.661 84 343.397 82.816 343.397 81.472ZM355.205 81.472C355.205 80.336 354.965 79.336 354.485 78.472C354.021 77.592 353.381 76.92 352.565 76.456C351.749 75.976 350.837 75.736 349.829 75.736C348.773 75.736 347.845 75.968 347.045 76.432C346.245 76.88 345.621 77.536 345.173 78.4C344.725 79.264 344.501 80.288 344.501 81.472C344.501 82.656 344.725 83.68 345.173 84.544C345.621 85.408 346.245 86.072 347.045 86.536C347.861 87 348.789 87.232 349.829 87.232C350.837 87.232 351.749 87 352.565 86.536C353.397 86.056 354.045 85.384 354.509 84.52C354.973 83.64 355.205 82.624 355.205 81.472ZM352.301 70.936L347.597 73.912V73.024L352.301 69.88V70.936ZM360.505 81.472C360.505 80.112 360.769 78.928 361.297 77.92C361.841 76.912 362.585 76.144 363.529 75.616C364.489 75.072 365.585 74.8 366.817 74.8C368.449 74.8 369.785 75.208 370.825 76.024C371.881 76.84 372.537 77.936 372.793 79.312H371.665C371.457 78.192 370.913 77.312 370.033 76.672C369.169 76.032 368.097 75.712 366.817 75.712C365.857 75.712 364.985 75.928 364.201 76.36C363.417 76.776 362.785 77.424 362.305 78.304C361.841 79.168 361.609 80.224 361.609 81.472C361.609 82.736 361.841 83.8 362.305 84.664C362.785 85.528 363.417 86.176 364.201 86.608C364.985 87.04 365.857 87.256 366.817 87.256C368.097 87.256 369.169 86.936 370.033 86.296C370.913 85.656 371.457 84.776 371.665 83.656H372.793C372.537 85.016 371.881 86.112 370.825 86.944C369.769 87.776 368.433 88.192 366.817 88.192C365.585 88.192 364.489 87.92 363.529 87.376C362.585 86.832 361.841 86.056 361.297 85.048C360.769 84.024 360.505 82.832 360.505 81.472ZM377.596 72.064C377.34 72.064 377.124 71.984 376.948 71.824C376.772 71.648 376.684 71.416 376.684 71.128C376.684 70.856 376.772 70.632 376.948 70.456C377.124 70.28 377.34 70.192 377.596 70.192C377.852 70.192 378.068 70.28 378.244 70.456C378.42 70.632 378.508 70.856 378.508 71.128C378.508 71.416 378.42 71.648 378.244 71.824C378.068 71.984 377.852 72.064 377.596 72.064ZM378.124 74.968V88H377.044V74.968H378.124ZM384.123 70.24V88H383.043V70.24H384.123ZM388.874 88.072C388.602 88.072 388.378 87.984 388.202 87.808C388.026 87.632 387.938 87.408 387.938 87.136C387.938 86.864 388.026 86.64 388.202 86.464C388.378 86.288 388.602 86.2 388.874 86.2C389.13 86.2 389.346 86.288 389.522 86.464C389.698 86.64 389.786 86.864 389.786 87.136C389.786 87.408 389.698 87.632 389.522 87.808C389.346 87.984 389.13 88.072 388.874 88.072Z" fill="#2E2E2E"/>
<path d="M30.24 65H17.184L8.64 17.768H22.176L26.496 48.968L42.048 17.768H55.584L30.24 65ZM90.9885 44.648H58.3485V46.856C58.3485 53.576 61.5165 56.36 66.9885 56.36C71.0205 56.36 74.9565 54.344 76.3965 51.08H89.2605C84.6525 60.776 75.9165 66.248 65.8365 66.248C52.5885 66.248 45.9645 59.528 45.9645 46.76C45.9645 28.52 56.9085 16.52 73.8045 16.52C85.7085 16.52 91.8525 22.856 91.8525 35.432C91.8525 38.216 91.5645 41.288 90.9885 44.648ZM59.7885 36.776H79.5645C79.7565 35.72 79.7565 34.76 79.7565 33.896C79.7565 27.848 75.9165 26.408 71.6925 26.408C65.3565 26.408 61.6125 30.92 59.7885 36.776ZM130.726 65H118.15L123.238 36.392C123.526 34.856 123.622 33.512 123.622 32.36C123.622 28.136 121.51 27.08 116.806 27.08C110.278 27.08 106.438 30.728 105.19 37.928L100.39 65H87.9097L96.2618 17.768H108.166L106.918 24.68C110.758 19.4 116.038 16.52 123.622 16.52C131.494 16.52 136.774 20.744 136.774 28.616C136.774 29.768 136.678 31.016 136.486 32.264L130.726 65ZM156.255 56.072C163.167 56.072 169.791 49.064 169.791 37.928C169.791 29.384 167.007 27.176 161.439 27.176C151.743 27.176 147.807 34.952 147.807 44.84C147.807 52.424 151.071 56.072 156.255 56.072ZM177.087 65H165.087L166.047 59.24C162.207 64.04 157.407 66.248 151.647 66.248C141.471 66.248 135.039 58.856 135.039 46.472C135.039 29.768 144.831 16.52 159.327 16.52C165.183 16.52 169.407 18.92 171.999 23.912L176.127 0.487995H188.415L177.087 65ZM226.281 44.648H193.641V46.856C193.641 53.576 196.809 56.36 202.281 56.36C206.313 56.36 210.249 54.344 211.689 51.08H224.553C219.945 60.776 211.209 66.248 201.129 66.248C187.881 66.248 181.257 59.528 181.257 46.76C181.257 28.52 192.201 16.52 209.097 16.52C221.001 16.52 227.145 22.856 227.145 35.432C227.145 38.216 226.857 41.288 226.281 44.648ZM195.081 36.776H214.857C215.049 35.72 215.049 34.76 215.049 33.896C215.049 27.848 211.209 26.408 206.985 26.408C200.649 26.408 196.905 30.92 195.081 36.776Z" fill="url(#paint0_linear_48_23)"/>
<path d="M247.106 55.592C256.898 55.592 260.834 47.816 260.834 37.928C260.834 29.192 257.57 26.696 252.29 26.696C245.474 26.696 238.85 33.704 238.85 44.84C238.85 53 241.634 55.592 247.106 55.592ZM231.554 87.368H219.266L231.554 17.768H243.554L242.594 23.528C246.434 18.728 251.234 16.52 256.994 16.52C267.074 16.52 273.602 23.912 273.602 36.296C273.602 53 263.714 66.248 249.314 66.248C243.458 66.248 239.234 63.848 236.546 58.856L231.554 87.368ZM301.388 47.048L302.348 41.864C300.908 43.112 298.604 43.784 293.804 44.648C284.876 46.28 283.052 48.68 283.052 53.096C283.052 56.072 285.356 57.32 288.62 57.32C294.668 57.32 300.332 52.616 301.388 47.048ZM310.796 65H299.18C299.084 64.424 298.988 63.752 298.988 62.984C298.988 62.312 299.084 61.544 299.18 60.776C295.628 64.04 290.252 66.248 283.916 66.248C274.508 66.248 270.188 61.928 270.188 55.496C270.188 41.48 280.076 38.408 295.148 36.392C303.692 35.24 304.076 33.608 304.076 31.016C304.076 26.984 301.388 26.12 296.876 26.12C291.212 26.12 288.428 28.904 287.18 33.128H275.564C277.484 23.336 284.012 16.52 299.18 16.52C311.756 16.52 316.556 21.224 316.556 29.768C316.556 31.496 316.364 33.224 316.076 35.144L310.796 65ZM358.636 32.072H346.636C346.636 27.176 344.812 25.832 339.34 25.832C333.676 25.832 330.796 27.08 330.796 30.344C330.796 32.648 333.196 33.896 337.612 35.144C351.052 38.984 357.004 39.368 357.004 49.544C357.004 58.952 348.268 66.248 333.1 66.248C320.716 66.248 313.324 60.872 313.324 52.328C313.324 51.56 313.42 50.696 313.516 49.832H326.38C326.284 50.312 326.284 50.792 326.284 51.272C326.284 55.112 329.644 56.84 334.636 56.84C339.724 56.84 344.14 55.208 344.14 51.464C344.14 48.872 341.836 47.624 337.516 46.568C322.444 43.112 318.412 39.08 318.412 30.92C318.412 24.008 324.748 16.52 341.356 16.52C353.644 16.52 358.828 21.32 358.828 29.48C358.828 30.344 358.732 31.208 358.636 32.072ZM400.077 32.072H388.077C388.077 27.176 386.253 25.832 380.781 25.832C375.117 25.832 372.237 27.08 372.237 30.344C372.237 32.648 374.637 33.896 379.053 35.144C392.493 38.984 398.445 39.368 398.445 49.544C398.445 58.952 389.709 66.248 374.541 66.248C362.157 66.248 354.765 60.872 354.765 52.328C354.765 51.56 354.861 50.696 354.957 49.832H367.821C367.725 50.312 367.725 50.792 367.725 51.272C367.725 55.112 371.085 56.84 376.077 56.84C381.165 56.84 385.581 55.208 385.581 51.464C385.581 48.872 383.277 47.624 378.957 46.568C363.885 43.112 359.853 39.08 359.853 30.92C359.853 24.008 366.189 16.52 382.797 16.52C395.085 16.52 400.269 21.32 400.269 29.48C400.269 30.344 400.173 31.208 400.077 32.072Z" fill="#2E2E2E"/>
<rect x="117" y="119" width="280" height="6" rx="3" fill="#2E2E2E"/>
<defs>
<linearGradient id="paint0_linear_48_23" x1="0" y1="30" x2="397" y2="30" gradientUnits="userSpaceOnUse">
<stop stop-color="#59AAF4"/>
<stop offset="1" stop-color="#48E4E4"/>
</linearGradient>
</defs>
</svg>
