<svg width="20" height="20" viewBox="0 0 20 20" fill="none" xmlns="http://www.w3.org/2000/svg">
<path fill-rule="evenodd" clip-rule="evenodd" d="M16.435 16.847C17.404 15.9365 18.176 14.8369 18.7032 13.6162C19.2303 12.3955 19.5015 11.0797 19.5 9.75C19.5 4.365 15.135 0 9.75001 0C4.36501 0 6.50921e-06 4.365 6.50921e-06 9.75C-0.00153199 11.0797 0.269673 12.3955 0.796857 13.6162C1.32404 14.8369 2.096 15.9365 3.06501 16.847C4.87194 18.5539 7.26435 19.5033 9.75001 19.5C12.2357 19.5033 14.6281 18.5539 16.435 16.847ZM3.89501 15.562C4.59708 14.6836 5.48802 13.9747 6.50164 13.4879C7.51527 13.0011 8.62554 12.7489 9.75001 12.75C10.8745 12.7489 11.9847 13.0011 12.9984 13.4879C14.012 13.9747 14.9029 14.6836 15.605 15.562C14.839 16.3357 13.9271 16.9496 12.922 17.3681C11.9169 17.7866 10.8387 18.0014 9.75001 18C8.66128 18.0014 7.58311 17.7866 6.57803 17.3681C5.57296 16.9496 4.66098 16.3357 3.89501 15.562ZM13.5 6.75C13.5 7.74456 13.1049 8.69839 12.4017 9.40165C11.6984 10.1049 10.7446 10.5 9.75001 10.5C8.75544 10.5 7.80162 10.1049 7.09836 9.40165C6.39509 8.69839 6.00001 7.74456 6.00001 6.75C6.00001 5.75544 6.39509 4.80161 7.09836 4.09835C7.80162 3.39509 8.75544 3 9.75001 3C10.7446 3 11.6984 3.39509 12.4017 4.09835C13.1049 4.80161 13.5 5.75544 13.5 6.75Z" fill="#2E2E2E"/>
</svg>
