<svg width="32" height="22" viewBox="0 0 32 22" fill="none" xmlns="http://www.w3.org/2000/svg">
<path d="M22.9231 2.11111V3.22222M22.9231 7.66667V8.77778M22.9231 13.2222V14.3333M22.9231 18.7778V19.8889M9.07692 12.1111H17.1538M9.07692 15.4444H13.6923M2.73077 1C1.77538 1 1 1.74667 1 2.66667V7.14963C1.70269 7.53922 2.28635 8.10026 2.69218 8.77622C3.09802 9.45218 3.3117 10.2192 3.3117 11C3.3117 11.7808 3.09802 12.5478 2.69218 13.2238C2.28635 13.8997 1.70269 14.4608 1 14.8504V19.3333C1 20.2533 1.77538 21 2.73077 21H29.2692C30.2246 21 31 20.2533 31 19.3333V14.8504C30.2973 14.4608 29.7137 13.8997 29.3078 13.2238C28.902 12.5478 28.6883 11.7808 28.6883 11C28.6883 10.2192 28.902 9.45218 29.3078 8.77622C29.7137 8.10026 30.2973 7.53922 31 7.14963V2.66667C31 1.74667 30.2246 1 29.2692 1H2.73077Z" stroke="black" stroke-width="1.5" stroke-linecap="round" stroke-linejoin="round"/>
</svg>
