<svg width="17" height="21" viewBox="0 0 17 21" fill="none" xmlns="http://www.w3.org/2000/svg">
<path fill-rule="evenodd" clip-rule="evenodd" d="M3.74912 4.5C3.74912 3.30653 4.22323 2.16193 5.06714 1.31802C5.91105 0.474106 7.05565 0 8.24912 0C9.44259 0 10.5872 0.474106 11.4311 1.31802C12.275 2.16193 12.7491 3.30653 12.7491 4.5C12.7491 5.69347 12.275 6.83807 11.4311 7.68198C10.5872 8.52589 9.44259 9 8.24912 9C7.05565 9 5.91105 8.52589 5.06714 7.68198C4.22323 6.83807 3.74912 5.69347 3.74912 4.5ZM0.000119403 18.605C0.0338397 16.4395 0.917761 14.3741 2.46108 12.8546C4.0044 11.3351 6.08333 10.4834 8.24912 10.4834C10.4149 10.4834 12.4938 11.3351 14.0372 12.8546C15.5805 14.3741 16.4644 16.4395 16.4981 18.605C16.5007 18.7508 16.4608 18.8942 16.3832 19.0176C16.3055 19.141 16.1936 19.2392 16.0611 19.3C13.6103 20.4237 10.9453 21.0037 8.24912 21C5.46312 21 2.81612 20.392 0.43712 19.3C0.304605 19.2392 0.192695 19.141 0.115082 19.0176C0.0374683 18.8942 -0.00248183 18.7508 0.000119403 18.605Z" fill="#4A4A4A"/>
</svg>
