<svg width="24" height="24" viewBox="0 0 24 24" fill="none" xmlns="http://www.w3.org/2000/svg">
<path d="M12 23.25C14.4937 23.2499 16.9168 22.4215 18.8888 20.895C20.8607 19.3685 22.2699 17.2304 22.895 14.8163M12 23.25C9.50626 23.2499 7.08318 22.4215 5.11122 20.895C3.13926 19.3685 1.7301 17.2304 1.105 14.8163M12 23.25C15.1063 23.25 17.625 18.2125 17.625 12C17.625 5.7875 15.1063 0.750001 12 0.750001M12 23.25C8.89375 23.25 6.375 18.2125 6.375 12C6.375 5.7875 8.89375 0.750001 12 0.750001M22.895 14.8163C23.1263 13.9163 23.25 12.9725 23.25 12C23.2531 10.0651 22.7548 8.16249 21.8038 6.4775M22.895 14.8163C19.5615 16.6642 15.8115 17.631 12 17.625C8.0475 17.625 4.33375 16.6063 1.105 14.8163M1.105 14.8163C0.868438 13.8962 0.749159 12.95 0.750004 12C0.750004 9.99375 1.275 8.10875 2.19625 6.4775M12 0.750001C13.9953 0.749169 15.9549 1.2792 17.6777 2.28571C19.4006 3.29221 20.8246 4.73896 21.8038 6.4775M12 0.750001C10.0047 0.749169 8.0451 1.2792 6.32226 2.28571C4.59943 3.29221 3.17539 4.73896 2.19625 6.4775M21.8038 6.4775C19.0821 8.83491 15.6007 10.1302 12 10.125C8.2525 10.125 4.825 8.75 2.19625 6.4775" stroke="black" stroke-width="1.5" stroke-linecap="round" stroke-linejoin="round"/>
</svg>
